<?xml version="1.0" encoding="UTF-8" standalone="no"?><!DOCTYPE svg PUBLIC "-//W3C//DTD SVG 1.1//EN" "http://www.w3.org/Graphics/SVG/1.1/DTD/svg11.dtd"><svg width="100%" height="100%" viewBox="0 0 1627 602" version="1.1" xmlns="http://www.w3.org/2000/svg" xmlns:xlink="http://www.w3.org/1999/xlink" xml:space="preserve" xmlns:serif="http://www.serif.com/" style="fill-rule:evenodd;clip-rule:evenodd;stroke-linejoin:round;stroke-miterlimit:2;"><path d="M0,394.302c0,-3.954 83.126,-50.231 120.658,-147.64c34.071,-88.428 156.531,-254.51 342.904,-197.548c186.373,56.964 204.06,113.301 370.712,52.939c166.652,-60.363 222.255,-149.92 412.275,-71.124c190.02,78.795 351.326,10.476 351.326,10.476l28.792,94.176c0,0 -83.655,32.146 -197.21,189.217c-113.555,157.072 -225.23,183.155 -289.499,171.647c-52.83,-9.46 -221.097,-64.394 -359.828,-32.737c-130.176,29.707 -190.258,67.96 -273.289,111.789c-103.36,54.559 -168.214,9.074 -233.136,-13.43c-64.922,-22.505 -249.869,-7.549 -273.064,-8.571l-0.64,-117.321l-0.001,-41.873Z" style="fill:#eee;fill-opacity:0.43;"/></svg>