<?xml version="1.0" encoding="UTF-8" standalone="no"?>
<!DOCTYPE svg PUBLIC "-//W3C//DTD SVG 1.1//EN" "http://www.w3.org/Graphics/SVG/1.1/DTD/svg11.dtd"><svg width="100%"
    height="100%" viewBox="0 0 2027 1260" version="1.1" xmlns="http://www.w3.org/2000/svg"
    xmlns:xlink="http://www.w3.org/1999/xlink" xml:space="preserve" xmlns:serif="http://www.serif.com/"
    style="fill-rule:evenodd;clip-rule:evenodd;stroke-linejoin:round;stroke-miterlimit:2;">
    <g id="Group-3">
        <g id="Rectangle-5">
            <path id="path-1"
                d="M8,778.34c244.903,-83.683 459.194,-125.524 642.871,-125.524c275.517,0 377.617,152.184 641.845,152.184c176.153,0 377.617,-62.947 604.392,-188.841l-76.96,-616.159l-1535.44,0l-276.704,778.34Z"
                style="fill:#0288d1;fill-opacity:0.73;" />
            <path id="path-11" serif:id="path-1"
                d="M8,778.34c244.903,-83.683 459.194,-125.524 642.871,-125.524c275.517,0 377.617,152.184 641.845,152.184c176.153,0 377.617,-62.947 604.392,-188.841l-76.96,-616.159l-1535.44,0l-276.704,778.34Z" />
        </g>
        <path id="Rectangle-51" serif:id="Rectangle-5"
            d="M0,720.5c110.333,-116.667 249.333,-175 417,-175c251.5,0 366,85 617.5,85c251.5,0 506.5,-195.5 758,-195.5c167.667,0 245.333,52.676 233,158.027l0,666.127l-2012,-10.367l-13.5,-528.287Z"
            style="fill:#f9fbfd;fill-opacity:0.24;" />
    </g>
</svg>