<?xml version="1.0" encoding="UTF-8" standalone="no"?><!DOCTYPE svg PUBLIC "-//W3C//DTD SVG 1.1//EN" "http://www.w3.org/Graphics/SVG/1.1/DTD/svg11.dtd"><svg width="100%" height="100%" viewBox="0 0 3065 1465" version="1.1" xmlns="http://www.w3.org/2000/svg" xmlns:xlink="http://www.w3.org/1999/xlink" xml:space="preserve" xmlns:serif="http://www.serif.com/" style="fill-rule:evenodd;clip-rule:evenodd;stroke-linejoin:round;stroke-miterlimit:2;"><path d="M3064.87,0.001l-3064.26,0c-1.095,695.177 -0.476,1106.33 0.022,1243.52c0.186,51.091 110.783,221.483 357.991,221.483c305.552,0 307.721,-348.332 951.06,-196.746c556.591,131.145 360.81,-223.318 903.783,-148.455c443.439,61.138 398.9,-340.369 851.535,-133.833l-0.133,-985.966l0.004,0.001l-0.006,0Z" style="fill:url(#_Linear1);"/><g id="Shape" opacity="0.31"><path id="path-4" d="M2794.25,588.884c-16.651,-161.393 -121.286,-21.064 -230.993,-155.327c-109.706,-134.263 -203.558,-119.82 -269.67,-13.446c-66.113,106.374 -152.387,77.038 -200.182,21.825c-47.794,-55.213 -88.947,-247.284 -217.064,-247.284c-128.118,0 -144.243,120.279 -214.796,238.905c-70.553,118.627 -204.66,-64.568 -290.422,-64.568c-85.762,0 -82.688,136.578 -294.152,122.896c-211.465,-13.682 -117.638,317.705 72.965,335.107c190.603,17.401 299.308,-157.608 419.999,-154.152c120.691,3.457 167.312,93.11 244.377,171.055c77.065,77.945 204.463,48.895 279.093,-27.604c74.631,-76.499 192.539,-156.473 294.997,-83.838c102.459,72.635 422.5,17.824 405.848,-143.569Z" style="fill:#4da8ff;fill-opacity:0.24;"/></g><g id="Shape1" serif:id="Shape" opacity="0.24"><path id="path-6" d="M1081.58,1062.67c-8.551,-89.664 -62.283,-11.703 -118.619,-86.294c-56.336,-74.591 -104.53,-66.568 -138.48,-7.47c-33.95,59.097 -78.253,42.799 -102.797,12.125c-24.543,-30.674 -45.676,-137.382 -111.466,-137.382c-65.791,0 -74.071,66.822 -110.302,132.727c-36.23,65.904 -105.096,-35.872 -149.136,-35.872c-44.04,0 -42.462,75.878 -151.052,68.277c-108.591,-7.601 -60.41,176.505 37.468,186.173c97.878,9.667 153.7,-87.562 215.677,-85.641c61.977,1.92 85.918,51.728 125.492,95.031c39.574,43.304 104.995,27.165 143.319,-15.335c38.324,-42.5 98.872,-86.931 151.486,-46.577c52.614,40.353 216.961,9.902 208.41,-79.762Z" style="fill:#83b9ff;fill-opacity:0.11;"/></g><defs><linearGradient id="_Linear1" x1="0" y1="0" x2="1" y2="0" gradientUnits="userSpaceOnUse" gradientTransform="matrix(3065,-1249.68,1249.68,3065,-6.93889e-18,1249.68)"><stop offset="0" style="stop-color:#001a34;stop-opacity:1"/><stop offset="1" style="stop-color:#489fff;stop-opacity:1"/></linearGradient></defs></svg>