<?xml version="1.0" encoding="UTF-8" standalone="no"?><!DOCTYPE svg PUBLIC "-//W3C//DTD SVG 1.1//EN" "http://www.w3.org/Graphics/SVG/1.1/DTD/svg11.dtd"><svg width="100%" height="100%" viewBox="0 0 1920 1080" version="1.1" xmlns="http://www.w3.org/2000/svg" xmlns:xlink="http://www.w3.org/1999/xlink" xml:space="preserve" xmlns:serif="http://www.serif.com/" style="fill-rule:evenodd;clip-rule:evenodd;stroke-linejoin:round;stroke-miterlimit:2;"><path id="a" d="M322.923,-2060.53c90.764,-51.09 201.684,-51.09 292.448,0c276.407,155.588 872.9,491.375 1153.24,649.177c93.531,52.656 151.387,151.507 151.387,258.667l0,1286.52c0,107.16 -57.856,206.01 -151.387,258.666c-280.342,157.803 -876.835,493.587 -1153.24,649.177c-90.764,51.089 -201.684,51.089 -292.448,0c-276.406,-155.589 -872.9,-491.375 -1153.24,-649.177c-93.532,-52.657 -151.395,-151.509 -151.388,-258.668l0,-1286.52c-0.007,-107.16 57.856,-206.011 151.388,-258.668c280.341,-157.803 876.835,-493.588 1153.24,-649.178l0,0.002Z" style="fill:url(#_Linear1);"/><defs><linearGradient id="_Linear1" x1="0" y1="0" x2="1" y2="0" gradientUnits="userSpaceOnUse" gradientTransform="matrix(-1380.37,-1027.34,1027.34,-1380.37,1428.1,826.614)"><stop offset="0" style="stop-color:#36096d;stop-opacity:1"/><stop offset="1" style="stop-color:#00aeff;stop-opacity:1"/></linearGradient></defs></svg>